<svg width="234" height="64" viewBox="0 0 234 64" fill="none" xmlns="http://www.w3.org/2000/svg">
<g clip-path="url(#clip0_2003_122)">
<path d="M128.827 61.7941C128.14 62.9743 127.051 63.5958 125.697 63.5958C123.82 63.5958 122.272 61.9134 122.272 60.1117C122.272 58.0715 123.885 56.5732 125.707 56.5732C126.988 56.5732 128.188 57.1592 128.875 58.4293H127.684C127.171 57.835 126.577 57.4793 125.781 57.4793C124.361 57.4793 123.262 58.6783 123.262 60.0217C123.262 61.4384 124.334 62.6918 125.726 62.6918C126.431 62.6918 127.064 62.4177 127.613 61.7962H128.831L128.827 61.7941Z" fill="white"/>
<path d="M136.567 63.5958C134.69 63.5958 133.097 61.9866 133.097 60.1578C133.097 58.082 134.69 56.5732 136.594 56.5732C138.609 56.5732 140.146 58.1552 140.146 60.0385C140.146 62.0871 138.561 63.5958 136.565 63.5958H136.567ZM139.157 60.1034C139.157 58.7034 138.094 57.4793 136.666 57.4793C134.835 57.4793 134.084 59.0529 134.084 60.0573C134.084 61.4196 135.074 62.6918 136.622 62.6918C138.169 62.6918 139.159 61.3379 139.159 60.1034H139.157Z" fill="white"/>
<path d="M149.203 63.4679L145.852 58.2366H145.833V63.4679H144.843V56.7007H145.923L149.219 61.8483H149.238V56.7007H150.228V63.4679H149.203Z" fill="white"/>
<path d="M157.783 58.4564C157.783 57.8433 157.389 57.4771 156.831 57.4771C156.355 57.4771 155.925 57.9061 155.925 58.3999C155.925 58.8938 156.246 59.149 156.905 59.3604C158.37 59.827 158.909 60.3753 158.909 61.545C158.909 62.7147 158.031 63.5936 156.831 63.5936C155.632 63.5936 154.762 62.7336 154.743 61.4634H155.732C155.741 62.1958 156.173 62.6896 156.831 62.6896C157.49 62.6896 157.922 62.2146 157.922 61.5471C157.922 61.0533 157.701 60.7415 156.978 60.4946C155.303 59.9275 154.936 59.3792 154.936 58.4188C154.936 57.385 155.787 56.571 156.831 56.571C157.949 56.571 158.754 57.2762 158.773 58.4543H157.783V58.4564Z" fill="white"/>
<path d="M164.174 63.4679V57.6068H162.874V56.7007H166.464V57.6068H165.164V63.4679H164.174Z" fill="white"/>
<path d="M174.038 63.4679L171.803 60.3312H171.784V63.4679H170.794V56.7007H172.964C174.593 56.7007 175.317 57.5607 175.317 58.9502C175.317 60.2392 174.327 60.9171 173.375 60.9443L175.271 63.4679H174.034H174.038ZM172.507 60.1952C173.66 60.1952 174.329 59.7474 174.329 58.8686C174.329 58.0922 173.706 57.6068 172.828 57.6068H171.784V60.1952H172.507Z" fill="white"/>
<path d="M183.524 56.7007H184.514V61.3273C184.514 62.7439 183.516 63.5956 182.243 63.5956C180.97 63.5956 179.972 62.7356 179.972 61.3273V56.7007H180.962V61.254C180.962 62.0952 181.438 62.6895 182.243 62.6895C183.048 62.6895 183.524 62.0869 183.524 61.254V56.7007Z" fill="white"/>
<path d="M195.76 61.7941C195.072 62.9743 193.983 63.5958 192.627 63.5958C190.75 63.5958 189.203 61.9134 189.203 60.1117C189.203 58.0715 190.815 56.5732 192.637 56.5732C193.918 56.5732 195.118 57.1592 195.806 58.4293H194.615C194.101 57.835 193.508 57.4793 192.711 57.4793C191.291 57.4793 190.192 58.6783 190.192 60.0217C190.192 61.4384 191.264 62.6918 192.656 62.6918C193.361 62.6918 193.994 62.4177 194.543 61.7962H195.762L195.76 61.7941Z" fill="white"/>
<path d="M206.583 61.7941C205.895 62.9743 204.807 63.5958 203.453 63.5958C201.576 63.5958 200.028 61.9134 200.028 60.1117C200.028 58.0715 201.641 56.5732 203.463 56.5732C204.744 56.5732 205.944 57.1592 206.631 58.4293H205.44C204.927 57.835 204.333 57.4793 203.536 57.4793C202.117 57.4793 201.018 58.6783 201.018 60.0217C201.018 61.4384 202.09 62.6918 203.482 62.6918C204.186 62.6918 204.82 62.4177 205.369 61.7962H206.587L206.583 61.7941Z" fill="white"/>
<path d="M211.188 63.4679V56.7007H212.178V63.4679H211.188Z" fill="white"/>
<path d="M220.337 63.5957C218.46 63.5957 216.866 61.9865 216.866 60.1577C216.866 58.0819 218.46 56.5731 220.364 56.5731C222.379 56.5731 223.916 58.1551 223.916 60.0384C223.916 62.087 222.331 63.5957 220.335 63.5957H220.337ZM222.929 60.1033C222.929 58.7033 221.865 57.4792 220.437 57.4792C218.607 57.4792 217.856 59.0528 217.856 60.0572C217.856 61.4195 218.846 62.6917 220.393 62.6917C221.941 62.6917 222.931 61.3378 222.931 60.1033H222.929ZM219.741 56.3639L219.358 55.6775L221.4 54.5078L221.802 55.2486L219.741 56.3639Z" fill="white"/>
<path d="M232.975 63.4679L229.624 58.2366H229.605V63.4679H228.615V56.7007H229.695L232.991 61.8483H233.01V56.7007H234V63.4679H232.975Z" fill="white"/>
<path d="M50.3519 47.7154L50.2911 50.3373C49.0141 50.2724 47.7392 50.2473 46.4622 50.2473C45.1852 50.2473 43.9083 50.2724 42.6459 50.3373L42.5851 47.7154L43.9229 47.4601L43.2624 45.311H37.8483L37.1878 47.4601L38.5256 47.7154L38.4648 50.3373C37.1878 50.2724 35.9129 50.2473 34.6359 50.2473C33.3589 50.2473 32.084 50.2724 30.8196 50.3373L30.7588 47.7154L32.0966 47.4601L36.565 35.3589L35.2272 35.1036L35.3488 32.4817C38.0601 32.6093 40.7755 32.6093 43.4868 32.4817L49.0183 47.4601L50.3561 47.7154H50.3519ZM42.2391 41.986L40.7483 37.1376L40.5533 35.8067L40.3583 37.1376L38.8674 41.986H42.237H42.2391Z" fill="white"/>
<path d="M70.4966 47.1797L70.3749 50.3394C69.706 50.6847 69.0371 50.7998 68.2235 50.7998C66.8627 50.7998 64.7218 50.4796 63.3253 48.0104L61.2829 44.4154C61.0648 44.0325 60.7608 43.8149 60.31 43.8149H59.5928V47.4601L60.9306 47.7154L60.8698 50.3373C59.6536 50.2724 58.4396 50.2473 57.2234 50.2473C56.0072 50.2473 54.7805 50.2724 53.5769 50.3373L53.5161 47.7154L54.8539 47.4601V35.3589L53.5161 35.1036L53.6377 32.4817H63.4238C66.6215 32.4817 69.9283 33.8628 69.9283 38.1483C69.9283 41.1511 68.3053 42.7267 66.2336 43.4026L67.3135 45.2985C68.2487 46.9495 68.687 47.1797 70.1338 47.1797H70.4986H70.4966ZM62.7298 40.2324C63.86 40.2324 64.8203 39.3892 64.8203 38.1483C64.8203 36.9074 63.8851 36.0641 62.7528 36.0641H59.5928V40.2345H62.7298V40.2324Z" fill="white"/>
<path d="M89.014 50.984C89.706 50.984 90.4126 50.6889 90.6789 50.5236L90.8006 53.1456C90.3015 53.6185 89.2321 54.1814 87.5672 54.1814C84.8643 54.1814 83.5894 52.6517 82.9226 50.7684C82.7549 50.7747 82.5829 50.7789 82.4131 50.7789C77.0703 50.7789 73.2959 47.3137 73.2959 41.3897C73.2959 35.4657 77.0703 32.0005 82.4131 32.0005C87.7559 32.0005 91.5303 35.4657 91.5303 41.3897C91.5303 45.3613 89.8339 48.2281 87.1038 49.6866C87.5148 50.6094 88.2424 50.984 89.014 50.984ZM82.4131 46.688C85.1055 46.688 86.4265 44.1623 86.4265 41.3918C86.4265 38.6213 85.1055 36.0956 82.4131 36.0956C79.7207 36.0956 78.3997 38.6213 78.3997 41.3918C78.3997 44.1623 79.7207 46.688 82.4131 46.688Z" fill="white"/>
<path d="M113.122 32.4712L113.243 35.0931L111.905 35.3484V42.4861C111.905 48.2678 108.903 50.7872 103.784 50.7872C98.6657 50.7872 95.663 48.2678 95.663 42.4861V35.3484L94.3252 35.0931L94.4468 32.4712C95.6378 32.5361 96.8289 32.5737 98.0325 32.5737C99.2361 32.5737 100.415 32.5361 101.618 32.4712L101.74 35.0931L100.402 35.3484V42.4861C100.402 44.7879 101.083 46.6942 103.782 46.6942C106.481 46.6942 107.162 44.7753 107.162 42.4861V35.3484L105.824 35.0931L105.946 32.4712C107.137 32.5361 108.328 32.5737 109.532 32.5737C110.735 32.5737 111.914 32.5361 113.117 32.4712H113.122Z" fill="white"/>
<path d="M120.417 50.2495C119.188 50.2495 117.974 50.2746 116.77 50.3395L116.709 47.7176L118.047 47.4623V35.3611L116.709 35.1058L116.831 32.4839C118.022 32.5488 119.213 32.5864 120.417 32.5864C121.62 32.5864 122.799 32.5488 124.002 32.4839L124.124 35.1058L122.786 35.3611V47.4623L124.124 47.7176L124.063 50.3395C122.847 50.2746 121.633 50.2495 120.417 50.2495Z" fill="white"/>
<path d="M133.912 36.0641V39.8118H140.767L140.656 42.8816L137.169 43.1369H133.912V47.4601L135.25 47.7154L135.189 50.3373C133.973 50.2724 132.759 50.2473 131.543 50.2473C130.327 50.2473 129.1 50.2724 127.896 50.3373L127.835 47.7154L129.173 47.4601V35.3589L127.835 35.1036L127.957 32.4817H142.375L142.497 33.7602L142.01 37.5142L139.525 37.7256L139.14 36.062H133.912V36.0641Z" fill="white"/>
<path d="M154.216 32.011C159.559 32.011 163.333 35.4762 163.333 41.4002C163.333 47.3242 159.559 50.7894 154.216 50.7894C148.873 50.7894 145.099 47.3242 145.099 41.4002C145.099 35.4762 148.873 32.011 154.216 32.011ZM158.23 41.3981C158.23 38.6276 156.909 36.1019 154.216 36.1019C151.524 36.1019 150.203 38.6276 150.203 41.3981C150.203 44.1686 151.524 46.6943 154.216 46.6943C156.909 46.6943 158.23 44.1686 158.23 41.3981Z" fill="white"/>
<path d="M183.113 47.1797L182.992 50.3394C182.323 50.6847 181.654 50.7998 180.84 50.7998C179.479 50.7998 177.338 50.4796 175.942 48.0104L173.9 44.4154C173.682 44.0325 173.377 43.8149 172.927 43.8149H172.21V47.4601L173.547 47.7154L173.487 50.3373C172.27 50.2724 171.056 50.2473 169.84 50.2473C168.624 50.2473 167.397 50.2724 166.194 50.3373L166.133 47.7154L167.471 47.4601V35.3589L166.133 35.1036L166.254 32.4817H176.041C179.238 32.4817 182.545 33.8628 182.545 38.1483C182.545 41.1511 180.922 42.7267 178.85 43.4026L179.93 45.2985C180.865 46.9495 181.304 47.1797 182.75 47.1797H183.115H183.113ZM175.346 40.2324C176.477 40.2324 177.437 39.3892 177.437 38.1483C177.437 36.9074 176.502 36.0641 175.37 36.0641H172.21V40.2345H175.346V40.2324Z" fill="white"/>
<path d="M198.433 44.1852L198.628 42.8544L200.573 32.4817C201.813 32.5466 203.054 32.5842 204.306 32.5842C205.558 32.5842 206.787 32.5466 208.026 32.4817L209.255 47.4601L210.592 47.7154L210.532 50.3373C209.315 50.2724 208.101 50.2473 206.885 50.2473C205.669 50.2473 204.455 50.2724 203.239 50.3373L203.178 47.7154L204.516 47.4601L204.115 37.3552L200.966 50.3373C200.127 50.2724 199.288 50.2473 198.437 50.2473C197.585 50.2473 196.747 50.2724 195.908 50.3373L192.758 37.3552L192.358 47.4601L193.696 47.7154L193.635 50.3373C192.419 50.2724 191.205 50.2473 189.989 50.2473C188.772 50.2473 187.556 50.2724 186.342 50.3373L186.281 47.7154L187.619 47.4601L188.848 32.4817C190.087 32.5466 191.328 32.5842 192.568 32.5842C193.807 32.5842 195.059 32.5466 196.3 32.4817L198.246 42.8544L198.441 44.1852H198.433Z" fill="white"/>
<path d="M233.469 47.7154L233.408 50.3373C232.131 50.2724 230.856 50.2473 229.579 50.2473C228.302 50.2473 227.028 50.2724 225.763 50.3373L225.702 47.7154L227.04 47.4601L226.38 45.311H220.966L220.305 47.4601L221.643 47.7154L221.582 50.3373C220.305 50.2724 219.03 50.2473 217.753 50.2473C216.476 50.2473 215.201 50.2724 213.937 50.3373L213.876 47.7154L215.214 47.4601L219.682 35.3589L218.344 35.1036L218.466 32.4817C221.177 32.6093 223.893 32.6093 226.604 32.4817L232.136 47.4601L233.473 47.7154H233.469ZM225.356 41.986L223.865 37.1376L223.67 35.8067L223.475 37.1376L221.985 41.986H225.354H225.356Z" fill="white"/>
<path d="M43.4932 26.8884H52.4301L26.3912 0.595703L26.2444 0.740088V0.643831C17.4963 9.38017 8.74813 18.1165 0 26.8529V50.3018H0.00209687V50.3583H26.1941V49.8854H26.2423V23.0654L30.1362 26.8884H39.0164L39.1087 26.7964L26.2423 14.17V9.46806L43.4911 26.8863L43.4932 26.8884Z" fill="white"/>
</g>
<defs>
<clipPath id="clip0_2003_122">
<rect width="234" height="63" fill="white" transform="translate(0 0.595703)"/>
</clipPath>
</defs>
</svg>
