<svg width="291" height="78" viewBox="0 0 291 78" fill="none" xmlns="http://www.w3.org/2000/svg">
<g clip-path="url(#clip0_2003_85)">
<path d="M64.0575 58.3387L63.9821 61.5849C62.4006 61.5046 60.8191 61.4735 59.2376 61.4735C57.6561 61.4735 56.0746 61.5046 54.5061 61.5849L54.4308 58.3387L56.0876 58.0227L55.2696 55.3619H48.5618L47.7438 58.0227L49.4006 58.3387L49.3253 61.5849C47.7438 61.5046 46.1623 61.4735 44.5808 61.4735C42.9993 61.4735 41.4178 61.5046 39.8492 61.5849L39.7739 58.3387L41.4307 58.0227L46.9673 43.0403L45.3105 42.7242L45.4611 39.478C48.8215 39.636 52.1871 39.636 55.5474 39.478L62.4032 58.0227L64.0601 58.3387H64.0575ZM54.0023 51.2452L52.1559 45.2424L51.9144 43.5947L51.6729 45.2424L49.8265 51.2452H54.0023Z" fill="#E70A18"/>
<path d="M89.0213 57.6755L88.8707 61.5875C88.0423 62.015 87.2138 62.1575 86.2036 62.1575C84.5157 62.1575 81.8643 61.7611 80.1321 58.704L77.6002 54.2531C77.3301 53.779 76.9535 53.5095 76.3952 53.5095H75.5071V58.0227L77.1639 58.3387L77.0886 61.5849C75.5824 61.5046 74.0762 61.4735 72.57 61.4735C71.0638 61.4735 69.542 61.5046 68.0514 61.5849L67.9761 58.3387L69.6329 58.0227V43.0403L67.9761 42.7242L68.1267 39.478H80.2542C84.217 39.478 88.3149 41.1879 88.3149 46.4938C88.3149 50.2115 86.3049 52.1624 83.7366 52.9992L85.0766 55.3464C86.2374 57.3905 86.7802 57.6755 88.572 57.6755H89.0239H89.0213ZM79.3946 49.0742C80.7943 49.0742 81.9863 48.0301 81.9863 46.4938C81.9863 44.9575 80.8255 43.9134 79.4258 43.9134H75.5097V49.0768H79.3972L79.3946 49.0742Z" fill="#E70A18"/>
<path d="M111.97 62.3855C112.83 62.3855 113.702 62.0202 114.035 61.8155L114.185 65.0617C113.567 65.6472 112.243 66.3442 110.178 66.3442C106.828 66.3442 105.249 64.4503 104.423 62.1186C104.216 62.1264 104.003 62.1316 103.79 62.1316C97.1677 62.1316 92.4907 57.8413 92.4907 50.5068C92.4907 43.1724 97.1677 38.8821 103.79 38.8821C110.412 38.8821 115.089 43.1724 115.089 50.5068C115.089 55.4241 112.985 58.9735 109.602 60.7792C110.113 61.9217 111.012 62.3855 111.967 62.3855H111.97ZM103.79 57.0667C107.124 57.0667 108.763 53.9396 108.763 50.5094C108.763 47.0793 107.127 43.9522 103.79 43.9522C100.453 43.9522 98.8167 47.0793 98.8167 50.5094C98.8167 53.9396 100.453 57.0667 103.79 57.0667Z" fill="#E70A18"/>
<path d="M141.848 39.465L141.998 42.7112L140.341 43.0273V51.8644C140.341 59.0227 136.62 62.1419 130.278 62.1419C123.937 62.1419 120.215 59.0227 120.215 51.8644V43.0273L118.559 42.7112L118.709 39.465C120.187 39.5453 121.662 39.592 123.152 39.592C124.643 39.592 126.105 39.5453 127.596 39.465L127.746 42.7112L126.09 43.0273V51.8644C126.09 54.7142 126.934 57.0744 130.278 57.0744C133.623 57.0744 134.467 54.6987 134.467 51.8644V43.0273L132.81 42.7112L132.961 39.465C134.439 39.5453 135.914 39.592 137.404 39.592C138.895 39.592 140.357 39.5453 141.848 39.465Z" fill="#E70A18"/>
<path d="M150.89 61.4761C149.368 61.4761 147.862 61.5072 146.371 61.5875L146.296 58.3413L147.953 58.0252V43.0429L146.296 42.7268L146.447 39.4806C147.924 39.5609 149.399 39.6075 150.89 39.6075C152.38 39.6075 153.842 39.5609 155.333 39.4806L155.484 42.7268L153.827 43.0429V58.0252L155.484 58.3413L155.408 61.5875C153.902 61.5072 152.396 61.4761 150.89 61.4761Z" fill="#E70A18"/>
<path d="M167.614 43.9134V48.5534H176.108L175.97 52.3541L171.647 52.6701H167.611V58.0227L169.268 58.3387L169.193 61.5849C167.686 61.5046 166.18 61.4735 164.674 61.4735C163.168 61.4735 161.646 61.5046 160.155 61.5849L160.08 58.3387L161.737 58.0227V43.0403L160.08 42.7242L160.231 39.478H178.1L178.251 41.061L177.648 45.7088L174.571 45.9704L174.093 43.9108H167.616L167.614 43.9134Z" fill="#E70A18"/>
<path d="M192.778 38.8951C199.4 38.8951 204.077 43.1853 204.077 50.5198C204.077 57.8542 199.4 62.1445 192.778 62.1445C186.156 62.1445 181.479 57.8542 181.479 50.5198C181.479 43.1853 186.156 38.8951 192.778 38.8951ZM197.751 50.5172C197.751 47.087 196.115 43.96 192.778 43.96C189.441 43.96 187.805 47.087 187.805 50.5172C187.805 53.9474 189.441 57.0744 192.778 57.0744C196.115 57.0744 197.751 53.9474 197.751 50.5172Z" fill="#E70A18"/>
<path d="M228.589 57.6755L228.438 61.5875C227.61 62.015 226.781 62.1575 225.771 62.1575C224.083 62.1575 221.432 61.7611 219.7 58.704L217.168 54.2531C216.897 53.779 216.521 53.5095 215.963 53.5095H215.074V58.0227L216.731 58.3387L216.656 61.5849C215.15 61.5046 213.644 61.4735 212.137 61.4735C210.631 61.4735 209.109 61.5046 207.619 61.5849L207.543 58.3387L209.2 58.0227V43.0403L207.543 42.7242L207.694 39.478H219.822C223.784 39.478 227.882 41.1879 227.882 46.4938C227.882 50.2115 225.872 52.1624 223.304 52.9992L224.644 55.3464C225.805 57.3905 226.348 57.6755 228.139 57.6755H228.591H228.589ZM218.962 49.0742C220.362 49.0742 221.554 48.0301 221.554 46.4938C221.554 44.9575 220.393 43.9134 218.993 43.9134H215.077V49.0768H218.965L218.962 49.0742Z" fill="#E70A18"/>
<path d="M247.575 53.9681L247.816 52.3204L250.226 39.478C251.763 39.5583 253.298 39.6049 254.851 39.6049C256.404 39.6049 257.923 39.5583 259.461 39.478L260.982 58.0227L262.639 58.3387L262.564 61.5849C261.058 61.5046 259.551 61.4735 258.045 61.4735C256.539 61.4735 255.033 61.5046 253.527 61.5849L253.451 58.3387L255.108 58.0227L254.612 45.5119L250.709 61.5849C249.67 61.5046 248.629 61.4735 247.575 61.4735C246.52 61.4735 245.481 61.5046 244.44 61.5849L240.537 45.5119L240.041 58.0227L241.698 58.3387L241.623 61.5849C240.116 61.5046 238.61 61.4735 237.104 61.4735C235.598 61.4735 234.092 61.5046 232.585 61.5849L232.51 58.3387L234.167 58.0227L235.689 39.478C237.226 39.5583 238.761 39.6049 240.298 39.6049C241.835 39.6049 243.386 39.5583 244.923 39.478L247.333 52.3204L247.575 53.9681Z" fill="#E70A18"/>
<path d="M290.997 58.3387L290.922 61.5849C289.34 61.5046 287.759 61.4735 286.177 61.4735C284.596 61.4735 283.014 61.5046 281.446 61.5849L281.37 58.3387L283.027 58.0227L282.209 55.3619H275.502L274.683 58.0227L276.34 58.3387L276.265 61.5849C274.683 61.5046 273.102 61.4735 271.52 61.4735C269.939 61.4735 268.357 61.5046 266.789 61.5849L266.714 58.3387L268.37 58.0227L273.907 43.0403L272.25 42.7242L272.401 39.478C275.761 39.636 279.127 39.636 282.487 39.478L289.343 58.0227L291 58.3387H290.997ZM280.942 51.2452L279.096 45.2424L278.854 43.5947L278.613 45.2424L276.766 51.2452H280.942Z" fill="#E70A18"/>
<path d="M55.558 32.5529H66.6337L34.3621 0L34.1804 0.178762V0.0595875C23.3383 10.876 12.4963 21.6924 1.6543 32.5089V61.5409H1.65689V61.6108H34.118V61.0253H34.1778V27.8196L39.0054 32.5529H50.011L50.1253 32.4389L34.1778 16.8063V10.9848L55.5554 32.5503L55.558 32.5529Z" fill="#E70A18"/>
<path d="M160.657 75.3652C159.805 76.8264 158.455 77.5958 156.775 77.5958C154.448 77.5958 152.531 75.5129 152.531 73.2822C152.531 70.7562 154.528 68.9012 156.788 68.9012C158.377 68.9012 159.862 69.6267 160.714 71.1992H159.239C158.603 70.4635 157.865 70.023 156.878 70.023C155.12 70.023 153.757 71.5075 153.757 73.1708C153.757 74.9248 155.084 76.4766 156.811 76.4766C157.686 76.4766 158.468 76.1372 159.148 75.3678H160.657V75.3652Z" fill="#E70A18"/>
<path d="M170.247 77.5958C167.92 77.5958 165.947 75.6035 165.947 73.3392C165.947 70.7692 167.92 68.9012 170.281 68.9012C172.777 68.9012 174.685 70.8599 174.685 73.1915C174.685 75.7279 172.722 77.5958 170.247 77.5958ZM173.457 73.2719C173.457 71.5386 172.14 70.023 170.369 70.023C168.1 70.023 167.17 71.9713 167.17 73.2149C167.17 74.9014 168.396 76.4766 170.312 76.4766C172.229 76.4766 173.457 74.8004 173.457 73.2719Z" fill="#E70A18"/>
<path d="M185.906 77.4378L181.754 70.9609H181.731V77.4378H180.505V69.0593H181.845L185.93 75.4326H185.953V69.0593H187.179V77.4378H185.909H185.906Z" fill="#E70A18"/>
<path d="M196.541 71.2329C196.541 70.4738 196.053 70.0204 195.362 70.0204C194.772 70.0204 194.237 70.5516 194.237 71.163C194.237 71.7744 194.635 72.0905 195.453 72.3521C197.268 72.9299 197.938 73.6086 197.938 75.0569C197.938 76.5051 196.847 77.5932 195.362 77.5932C193.876 77.5932 192.796 76.5284 192.775 74.9558H194.001C194.012 75.8626 194.546 76.474 195.362 76.474C196.177 76.474 196.712 75.8859 196.712 75.0595C196.712 74.4481 196.44 74.062 195.544 73.7563C193.466 73.0542 193.012 72.3754 193.012 71.1863C193.012 69.9065 194.066 68.8987 195.362 68.8987C196.746 68.8987 197.746 69.7717 197.767 71.2303H196.541V71.2329Z" fill="#E70A18"/>
<path d="M204.464 77.4378V70.1811H202.851V69.0593H207.3V70.1811H205.687V77.4378H204.461H204.464Z" fill="#E70A18"/>
<path d="M216.685 77.4378L213.917 73.5543H213.893V77.4378H212.667V69.0593H215.358C217.378 69.0593 218.274 70.1241 218.274 71.8444C218.274 73.4403 217.048 74.2797 215.869 74.3134L218.22 77.4378H216.687H216.685ZM214.789 73.3859C216.22 73.3859 217.048 72.8314 217.048 71.7433C217.048 70.7822 216.277 70.1811 215.186 70.1811H213.893V73.3859H214.789Z" fill="#E70A18"/>
<path d="M228.444 69.0593H229.669V74.7875C229.669 76.5414 228.433 77.5959 226.854 77.5959C225.275 77.5959 224.039 76.5311 224.039 74.7875V69.0593H225.265V74.6968C225.265 75.7383 225.855 76.474 226.854 76.474C227.854 76.474 228.444 75.7279 228.444 74.6968V69.0593Z" fill="#E70A18"/>
<path d="M243.604 75.3652C242.752 76.8264 241.402 77.5958 239.722 77.5958C237.395 77.5958 235.479 75.5129 235.479 73.2822C235.479 70.7562 237.476 68.9012 239.735 68.9012C241.324 68.9012 242.81 69.6267 243.661 71.1992H242.186C241.55 70.4635 240.813 70.023 239.826 70.023C238.068 70.023 236.704 71.5075 236.704 73.1708C236.704 74.9248 238.031 76.4766 239.756 76.4766C240.631 76.4766 241.412 76.1372 242.093 75.3678H243.602L243.604 75.3652Z" fill="#E70A18"/>
<path d="M257.02 75.3652C256.168 76.8264 254.818 77.5958 253.137 77.5958C250.811 77.5958 248.894 75.5129 248.894 73.2822C248.894 70.7562 250.891 68.9012 253.15 68.9012C254.74 68.9012 256.225 69.6267 257.077 71.1992H255.602C254.966 70.4635 254.228 70.023 253.241 70.023C251.483 70.023 250.12 71.5075 250.12 73.1708C250.12 74.9248 251.447 76.4766 253.174 76.4766C254.049 76.4766 254.831 76.1372 255.511 75.3678H257.02V75.3652Z" fill="#E70A18"/>
<path d="M262.728 77.4378V69.0593H263.954V77.4378H262.728Z" fill="#E70A18"/>
<path d="M274.066 77.5958C271.739 77.5958 269.765 75.6036 269.765 73.3392C269.765 70.7692 271.739 68.9013 274.1 68.9013C276.595 68.9013 278.504 70.8599 278.504 73.1916C278.504 75.7279 276.541 77.5958 274.066 77.5958ZM277.276 73.2719C277.276 71.5386 275.959 70.0231 274.188 70.0231C271.918 70.0231 270.989 71.9713 270.989 73.2149C270.989 74.9015 272.214 76.4766 274.131 76.4766C276.047 76.4766 277.276 74.8004 277.276 73.2719ZM273.328 68.6422L272.85 67.7924L275.382 66.3442L275.881 67.2613L273.328 68.6422Z" fill="#E70A18"/>
<path d="M289.728 77.4378L285.575 70.9609H285.552V77.4378H284.326V69.0593H285.666L289.751 75.4326H289.774V69.0593H291V77.4378H289.73H289.728Z" fill="#E70A18"/>
</g>
<defs>
<clipPath id="clip0_2003_85">
<rect width="291" height="77.5958" fill="white"/>
</clipPath>
</defs>
</svg>
