<svg width="88" height="67" viewBox="0 0 88 67" fill="none" xmlns="http://www.w3.org/2000/svg">
    <path d="M27.85 39.5958L24.154 29.1658H25.932L28.956 38.0698H28.606L31.616 29.1658H33.394L29.698 39.5958H27.85ZM36.9057 39.7638C36.1497 39.7638 35.4777 39.5912 34.8897 39.2458C34.311 38.8912 33.8584 38.4152 33.5317 37.8178C33.205 37.2112 33.0417 36.5345 33.0417 35.7878C33.0417 35.0225 33.205 34.3458 33.5317 33.7578C33.8677 33.1698 34.3157 32.7078 34.8757 32.3718C35.4357 32.0265 36.0704 31.8538 36.7797 31.8538C37.349 31.8538 37.8577 31.9518 38.3057 32.1478C38.7537 32.3438 39.1317 32.6145 39.4397 32.9598C39.7477 33.2958 39.981 33.6832 40.1397 34.1218C40.3077 34.5605 40.3917 35.0272 40.3917 35.5218C40.3917 35.6432 40.387 35.7692 40.3777 35.8998C40.3684 36.0305 40.3497 36.1518 40.3217 36.2638H34.2877V35.0038H39.4257L38.6697 35.5778C38.763 35.1205 38.7304 34.7145 38.5717 34.3598C38.4224 33.9958 38.189 33.7112 37.8717 33.5058C37.5637 33.2912 37.1997 33.1838 36.7797 33.1838C36.3597 33.1838 35.9864 33.2912 35.6597 33.5058C35.333 33.7112 35.081 34.0098 34.9037 34.4018C34.7264 34.7845 34.6564 35.2512 34.6937 35.8018C34.647 36.3152 34.717 36.7632 34.9037 37.1458C35.0997 37.5285 35.3704 37.8272 35.7157 38.0418C36.0704 38.2565 36.4717 38.3638 36.9197 38.3638C37.377 38.3638 37.7644 38.2612 38.0817 38.0558C38.4084 37.8505 38.665 37.5845 38.8517 37.2578L40.1397 37.8878C39.9904 38.2425 39.757 38.5645 39.4397 38.8538C39.1317 39.1338 38.7584 39.3578 38.3197 39.5258C37.8904 39.6845 37.419 39.7638 36.9057 39.7638ZM41.5156 39.5958V32.0218H43.0276V33.5478L42.8876 33.3238C43.0556 32.8292 43.3263 32.4745 43.6996 32.2598C44.073 32.0358 44.521 31.9238 45.0436 31.9238H45.5056V33.3658H44.8476C44.325 33.3658 43.9003 33.5292 43.5736 33.8558C43.2563 34.1732 43.0976 34.6305 43.0976 35.2278V39.5958H41.5156Z" fill="white"/>
    <path d="M65 29.0958C65 28.5435 64.5523 28.0958 64 28.0958H55C54.4477 28.0958 54 28.5435 54 29.0958C54 29.6481 54.4477 30.0958 55 30.0958H63V38.0958C63 38.6481 63.4477 39.0958 64 39.0958C64.5523 39.0958 65 38.6481 65 38.0958V29.0958ZM55.7071 38.8029L64.7071 29.8029L63.2929 28.3887L54.2929 37.3887L55.7071 38.8029Z" fill="white"/>
</svg>
