<svg xmlns="http://www.w3.org/2000/svg" xmlns:xlink="http://www.w3.org/1999/xlink" style="display:none">
    <symbol id="icon-favicon" viewBox="0 0 66 62">
        <path d="M54.558 32.5529H65.6337L33.3621 0L33.1804 0.178762V0.0595875C22.3383 10.876 11.4963 21.6924 0.654297 32.5089V61.5409H0.656894V61.6108H33.118V61.0253H33.1778V27.8196L38.0054 32.5529H49.011L49.1253 32.4389L33.1778 16.8063V10.9848L54.5554 32.5503L54.558 32.5529Z" fill="#E70A18"/>
    </symbol>

    <symbol id="arqui-logo-h-red" viewBox="0 0 291 78" fill="none">
        <g clip-path="url(#clip0_2003_85)">
            <path d="M64.0575 58.3387L63.9821 61.5849C62.4006 61.5046 60.8191 61.4735 59.2376 61.4735C57.6561 61.4735 56.0746 61.5046 54.5061 61.5849L54.4308 58.3387L56.0876 58.0227L55.2696 55.3619H48.5618L47.7438 58.0227L49.4006 58.3387L49.3253 61.5849C47.7438 61.5046 46.1623 61.4735 44.5808 61.4735C42.9993 61.4735 41.4178 61.5046 39.8492 61.5849L39.7739 58.3387L41.4307 58.0227L46.9673 43.0403L45.3105 42.7242L45.4611 39.478C48.8215 39.636 52.1871 39.636 55.5474 39.478L62.4032 58.0227L64.0601 58.3387H64.0575ZM54.0023 51.2452L52.1559 45.2424L51.9144 43.5947L51.6729 45.2424L49.8265 51.2452H54.0023Z" fill="#E70A18"/>
            <path d="M89.0213 57.6755L88.8707 61.5875C88.0423 62.015 87.2138 62.1575 86.2036 62.1575C84.5157 62.1575 81.8643 61.7611 80.1321 58.704L77.6002 54.2531C77.3301 53.779 76.9535 53.5095 76.3952 53.5095H75.5071V58.0227L77.1639 58.3387L77.0886 61.5849C75.5824 61.5046 74.0762 61.4735 72.57 61.4735C71.0638 61.4735 69.542 61.5046 68.0514 61.5849L67.9761 58.3387L69.6329 58.0227V43.0403L67.9761 42.7242L68.1267 39.478H80.2542C84.217 39.478 88.3149 41.1879 88.3149 46.4938C88.3149 50.2115 86.3049 52.1624 83.7366 52.9992L85.0766 55.3464C86.2374 57.3905 86.7802 57.6755 88.572 57.6755H89.0239H89.0213ZM79.3946 49.0742C80.7943 49.0742 81.9863 48.0301 81.9863 46.4938C81.9863 44.9575 80.8255 43.9134 79.4258 43.9134H75.5097V49.0768H79.3972L79.3946 49.0742Z" fill="#E70A18"/>
            <path d="M111.97 62.3855C112.83 62.3855 113.702 62.0202 114.035 61.8155L114.185 65.0617C113.567 65.6472 112.243 66.3442 110.178 66.3442C106.828 66.3442 105.249 64.4503 104.423 62.1186C104.216 62.1264 104.003 62.1316 103.79 62.1316C97.1677 62.1316 92.4907 57.8413 92.4907 50.5068C92.4907 43.1724 97.1677 38.8821 103.79 38.8821C110.412 38.8821 115.089 43.1724 115.089 50.5068C115.089 55.4241 112.985 58.9735 109.602 60.7792C110.113 61.9217 111.012 62.3855 111.967 62.3855H111.97ZM103.79 57.0667C107.124 57.0667 108.763 53.9396 108.763 50.5094C108.763 47.0793 107.127 43.9522 103.79 43.9522C100.453 43.9522 98.8167 47.0793 98.8167 50.5094C98.8167 53.9396 100.453 57.0667 103.79 57.0667Z" fill="#E70A18"/>
            <path d="M141.848 39.465L141.998 42.7112L140.341 43.0273V51.8644C140.341 59.0227 136.62 62.1419 130.278 62.1419C123.937 62.1419 120.215 59.0227 120.215 51.8644V43.0273L118.559 42.7112L118.709 39.465C120.187 39.5453 121.662 39.592 123.152 39.592C124.643 39.592 126.105 39.5453 127.596 39.465L127.746 42.7112L126.09 43.0273V51.8644C126.09 54.7142 126.934 57.0744 130.278 57.0744C133.623 57.0744 134.467 54.6987 134.467 51.8644V43.0273L132.81 42.7112L132.961 39.465C134.439 39.5453 135.914 39.592 137.404 39.592C138.895 39.592 140.357 39.5453 141.848 39.465Z" fill="#E70A18"/>
            <path d="M150.89 61.4761C149.368 61.4761 147.862 61.5072 146.371 61.5875L146.296 58.3413L147.953 58.0252V43.0429L146.296 42.7268L146.447 39.4806C147.924 39.5609 149.399 39.6075 150.89 39.6075C152.38 39.6075 153.842 39.5609 155.333 39.4806L155.484 42.7268L153.827 43.0429V58.0252L155.484 58.3413L155.408 61.5875C153.902 61.5072 152.396 61.4761 150.89 61.4761Z" fill="#E70A18"/>
            <path d="M167.614 43.9134V48.5534H176.108L175.97 52.3541L171.647 52.6701H167.611V58.0227L169.268 58.3387L169.193 61.5849C167.686 61.5046 166.18 61.4735 164.674 61.4735C163.168 61.4735 161.646 61.5046 160.155 61.5849L160.08 58.3387L161.737 58.0227V43.0403L160.08 42.7242L160.231 39.478H178.1L178.251 41.061L177.648 45.7088L174.571 45.9704L174.093 43.9108H167.616L167.614 43.9134Z" fill="#E70A18"/>
            <path d="M192.778 38.8951C199.4 38.8951 204.077 43.1853 204.077 50.5198C204.077 57.8542 199.4 62.1445 192.778 62.1445C186.156 62.1445 181.479 57.8542 181.479 50.5198C181.479 43.1853 186.156 38.8951 192.778 38.8951ZM197.751 50.5172C197.751 47.087 196.115 43.96 192.778 43.96C189.441 43.96 187.805 47.087 187.805 50.5172C187.805 53.9474 189.441 57.0744 192.778 57.0744C196.115 57.0744 197.751 53.9474 197.751 50.5172Z" fill="#E70A18"/>
            <path d="M228.589 57.6755L228.438 61.5875C227.61 62.015 226.781 62.1575 225.771 62.1575C224.083 62.1575 221.432 61.7611 219.7 58.704L217.168 54.2531C216.897 53.779 216.521 53.5095 215.963 53.5095H215.074V58.0227L216.731 58.3387L216.656 61.5849C215.15 61.5046 213.644 61.4735 212.137 61.4735C210.631 61.4735 209.109 61.5046 207.619 61.5849L207.543 58.3387L209.2 58.0227V43.0403L207.543 42.7242L207.694 39.478H219.822C223.784 39.478 227.882 41.1879 227.882 46.4938C227.882 50.2115 225.872 52.1624 223.304 52.9992L224.644 55.3464C225.805 57.3905 226.348 57.6755 228.139 57.6755H228.591H228.589ZM218.962 49.0742C220.362 49.0742 221.554 48.0301 221.554 46.4938C221.554 44.9575 220.393 43.9134 218.993 43.9134H215.077V49.0768H218.965L218.962 49.0742Z" fill="#E70A18"/>
            <path d="M247.575 53.9681L247.816 52.3204L250.226 39.478C251.763 39.5583 253.298 39.6049 254.851 39.6049C256.404 39.6049 257.923 39.5583 259.461 39.478L260.982 58.0227L262.639 58.3387L262.564 61.5849C261.058 61.5046 259.551 61.4735 258.045 61.4735C256.539 61.4735 255.033 61.5046 253.527 61.5849L253.451 58.3387L255.108 58.0227L254.612 45.5119L250.709 61.5849C249.67 61.5046 248.629 61.4735 247.575 61.4735C246.52 61.4735 245.481 61.5046 244.44 61.5849L240.537 45.5119L240.041 58.0227L241.698 58.3387L241.623 61.5849C240.116 61.5046 238.61 61.4735 237.104 61.4735C235.598 61.4735 234.092 61.5046 232.585 61.5849L232.51 58.3387L234.167 58.0227L235.689 39.478C237.226 39.5583 238.761 39.6049 240.298 39.6049C241.835 39.6049 243.386 39.5583 244.923 39.478L247.333 52.3204L247.575 53.9681Z" fill="#E70A18"/>
            <path d="M290.997 58.3387L290.922 61.5849C289.34 61.5046 287.759 61.4735 286.177 61.4735C284.596 61.4735 283.014 61.5046 281.446 61.5849L281.37 58.3387L283.027 58.0227L282.209 55.3619H275.502L274.683 58.0227L276.34 58.3387L276.265 61.5849C274.683 61.5046 273.102 61.4735 271.52 61.4735C269.939 61.4735 268.357 61.5046 266.789 61.5849L266.714 58.3387L268.37 58.0227L273.907 43.0403L272.25 42.7242L272.401 39.478C275.761 39.636 279.127 39.636 282.487 39.478L289.343 58.0227L291 58.3387H290.997ZM280.942 51.2452L279.096 45.2424L278.854 43.5947L278.613 45.2424L276.766 51.2452H280.942Z" fill="#E70A18"/>
            <path d="M55.558 32.5529H66.6337L34.3621 0L34.1804 0.178762V0.0595875C23.3383 10.876 12.4963 21.6924 1.6543 32.5089V61.5409H1.65689V61.6108H34.118V61.0253H34.1778V27.8196L39.0054 32.5529H50.011L50.1253 32.4389L34.1778 16.8063V10.9848L55.5554 32.5503L55.558 32.5529Z" fill="#E70A18"/>
            <path d="M160.657 75.3652C159.805 76.8264 158.455 77.5958 156.775 77.5958C154.448 77.5958 152.531 75.5129 152.531 73.2822C152.531 70.7562 154.528 68.9012 156.788 68.9012C158.377 68.9012 159.862 69.6267 160.714 71.1992H159.239C158.603 70.4635 157.865 70.023 156.878 70.023C155.12 70.023 153.757 71.5075 153.757 73.1708C153.757 74.9248 155.084 76.4766 156.811 76.4766C157.686 76.4766 158.468 76.1372 159.148 75.3678H160.657V75.3652Z" fill="#E70A18"/>
            <path d="M170.247 77.5958C167.92 77.5958 165.947 75.6035 165.947 73.3392C165.947 70.7692 167.92 68.9012 170.281 68.9012C172.777 68.9012 174.685 70.8599 174.685 73.1915C174.685 75.7279 172.722 77.5958 170.247 77.5958ZM173.457 73.2719C173.457 71.5386 172.14 70.023 170.369 70.023C168.1 70.023 167.17 71.9713 167.17 73.2149C167.17 74.9014 168.396 76.4766 170.312 76.4766C172.229 76.4766 173.457 74.8004 173.457 73.2719Z" fill="#E70A18"/>
            <path d="M185.906 77.4378L181.754 70.9609H181.731V77.4378H180.505V69.0593H181.845L185.93 75.4326H185.953V69.0593H187.179V77.4378H185.909H185.906Z" fill="#E70A18"/>
            <path d="M196.541 71.2329C196.541 70.4738 196.053 70.0204 195.362 70.0204C194.772 70.0204 194.237 70.5516 194.237 71.163C194.237 71.7744 194.635 72.0905 195.453 72.3521C197.268 72.9299 197.938 73.6086 197.938 75.0569C197.938 76.5051 196.847 77.5932 195.362 77.5932C193.876 77.5932 192.796 76.5284 192.775 74.9558H194.001C194.012 75.8626 194.546 76.474 195.362 76.474C196.177 76.474 196.712 75.8859 196.712 75.0595C196.712 74.4481 196.44 74.062 195.544 73.7563C193.466 73.0542 193.012 72.3754 193.012 71.1863C193.012 69.9065 194.066 68.8987 195.362 68.8987C196.746 68.8987 197.746 69.7717 197.767 71.2303H196.541V71.2329Z" fill="#E70A18"/>
            <path d="M204.464 77.4378V70.1811H202.851V69.0593H207.3V70.1811H205.687V77.4378H204.461H204.464Z" fill="#E70A18"/>
            <path d="M216.685 77.4378L213.917 73.5543H213.893V77.4378H212.667V69.0593H215.358C217.378 69.0593 218.274 70.1241 218.274 71.8444C218.274 73.4403 217.048 74.2797 215.869 74.3134L218.22 77.4378H216.687H216.685ZM214.789 73.3859C216.22 73.3859 217.048 72.8314 217.048 71.7433C217.048 70.7822 216.277 70.1811 215.186 70.1811H213.893V73.3859H214.789Z" fill="#E70A18"/>
            <path d="M228.444 69.0593H229.669V74.7875C229.669 76.5414 228.433 77.5959 226.854 77.5959C225.275 77.5959 224.039 76.5311 224.039 74.7875V69.0593H225.265V74.6968C225.265 75.7383 225.855 76.474 226.854 76.474C227.854 76.474 228.444 75.7279 228.444 74.6968V69.0593Z" fill="#E70A18"/>
            <path d="M243.604 75.3652C242.752 76.8264 241.402 77.5958 239.722 77.5958C237.395 77.5958 235.479 75.5129 235.479 73.2822C235.479 70.7562 237.476 68.9012 239.735 68.9012C241.324 68.9012 242.81 69.6267 243.661 71.1992H242.186C241.55 70.4635 240.813 70.023 239.826 70.023C238.068 70.023 236.704 71.5075 236.704 73.1708C236.704 74.9248 238.031 76.4766 239.756 76.4766C240.631 76.4766 241.412 76.1372 242.093 75.3678H243.602L243.604 75.3652Z" fill="#E70A18"/>
            <path d="M257.02 75.3652C256.168 76.8264 254.818 77.5958 253.137 77.5958C250.811 77.5958 248.894 75.5129 248.894 73.2822C248.894 70.7562 250.891 68.9012 253.15 68.9012C254.74 68.9012 256.225 69.6267 257.077 71.1992H255.602C254.966 70.4635 254.228 70.023 253.241 70.023C251.483 70.023 250.12 71.5075 250.12 73.1708C250.12 74.9248 251.447 76.4766 253.174 76.4766C254.049 76.4766 254.831 76.1372 255.511 75.3678H257.02V75.3652Z" fill="#E70A18"/>
            <path d="M262.728 77.4378V69.0593H263.954V77.4378H262.728Z" fill="#E70A18"/>
            <path d="M274.066 77.5958C271.739 77.5958 269.765 75.6036 269.765 73.3392C269.765 70.7692 271.739 68.9013 274.1 68.9013C276.595 68.9013 278.504 70.8599 278.504 73.1916C278.504 75.7279 276.541 77.5958 274.066 77.5958ZM277.276 73.2719C277.276 71.5386 275.959 70.0231 274.188 70.0231C271.918 70.0231 270.989 71.9713 270.989 73.2149C270.989 74.9015 272.214 76.4766 274.131 76.4766C276.047 76.4766 277.276 74.8004 277.276 73.2719ZM273.328 68.6422L272.85 67.7924L275.382 66.3442L275.881 67.2613L273.328 68.6422Z" fill="#E70A18"/>
            <path d="M289.728 77.4378L285.575 70.9609H285.552V77.4378H284.326V69.0593H285.666L289.751 75.4326H289.774V69.0593H291V77.4378H289.73H289.728Z" fill="#E70A18"/>
        </g>
        <defs>
            <clipPath id="clip0_2003_85">
                <rect width="291" height="77.5958" fill="white"/>
            </clipPath>
        </defs>
    </symbol>

    <symbol id="arqui-logo-h-white" width="234" height="64" viewBox="0 0 234 64" fill="none">
        <g clip-path="url(#clip0_2003_122)">
            <path d="M128.827 61.7941C128.14 62.9743 127.051 63.5958 125.697 63.5958C123.82 63.5958 122.272 61.9134 122.272 60.1117C122.272 58.0715 123.885 56.5732 125.707 56.5732C126.988 56.5732 128.188 57.1592 128.875 58.4293H127.684C127.171 57.835 126.577 57.4793 125.781 57.4793C124.361 57.4793 123.262 58.6783 123.262 60.0217C123.262 61.4384 124.334 62.6918 125.726 62.6918C126.431 62.6918 127.064 62.4177 127.613 61.7962H128.831L128.827 61.7941Z" fill="white"/>
            <path d="M136.567 63.5958C134.69 63.5958 133.097 61.9866 133.097 60.1578C133.097 58.082 134.69 56.5732 136.594 56.5732C138.609 56.5732 140.146 58.1552 140.146 60.0385C140.146 62.0871 138.561 63.5958 136.565 63.5958H136.567ZM139.157 60.1034C139.157 58.7034 138.094 57.4793 136.666 57.4793C134.835 57.4793 134.084 59.0529 134.084 60.0573C134.084 61.4196 135.074 62.6918 136.622 62.6918C138.169 62.6918 139.159 61.3379 139.159 60.1034H139.157Z" fill="white"/>
            <path d="M149.203 63.4679L145.852 58.2366H145.833V63.4679H144.843V56.7007H145.923L149.219 61.8483H149.238V56.7007H150.228V63.4679H149.203Z" fill="white"/>
            <path d="M157.783 58.4564C157.783 57.8433 157.389 57.4771 156.831 57.4771C156.355 57.4771 155.925 57.9061 155.925 58.3999C155.925 58.8938 156.246 59.149 156.905 59.3604C158.37 59.827 158.909 60.3753 158.909 61.545C158.909 62.7147 158.031 63.5936 156.831 63.5936C155.632 63.5936 154.762 62.7336 154.743 61.4634H155.732C155.741 62.1958 156.173 62.6896 156.831 62.6896C157.49 62.6896 157.922 62.2146 157.922 61.5471C157.922 61.0533 157.701 60.7415 156.978 60.4946C155.303 59.9275 154.936 59.3792 154.936 58.4188C154.936 57.385 155.787 56.571 156.831 56.571C157.949 56.571 158.754 57.2762 158.773 58.4543H157.783V58.4564Z" fill="white"/>
            <path d="M164.174 63.4679V57.6068H162.874V56.7007H166.464V57.6068H165.164V63.4679H164.174Z" fill="white"/>
            <path d="M174.038 63.4679L171.803 60.3312H171.784V63.4679H170.794V56.7007H172.964C174.593 56.7007 175.317 57.5607 175.317 58.9502C175.317 60.2392 174.327 60.9171 173.375 60.9443L175.271 63.4679H174.034H174.038ZM172.507 60.1952C173.66 60.1952 174.329 59.7474 174.329 58.8686C174.329 58.0922 173.706 57.6068 172.828 57.6068H171.784V60.1952H172.507Z" fill="white"/>
            <path d="M183.524 56.7007H184.514V61.3273C184.514 62.7439 183.516 63.5956 182.243 63.5956C180.97 63.5956 179.972 62.7356 179.972 61.3273V56.7007H180.962V61.254C180.962 62.0952 181.438 62.6895 182.243 62.6895C183.048 62.6895 183.524 62.0869 183.524 61.254V56.7007Z" fill="white"/>
            <path d="M195.76 61.7941C195.072 62.9743 193.983 63.5958 192.627 63.5958C190.75 63.5958 189.203 61.9134 189.203 60.1117C189.203 58.0715 190.815 56.5732 192.637 56.5732C193.918 56.5732 195.118 57.1592 195.806 58.4293H194.615C194.101 57.835 193.508 57.4793 192.711 57.4793C191.291 57.4793 190.192 58.6783 190.192 60.0217C190.192 61.4384 191.264 62.6918 192.656 62.6918C193.361 62.6918 193.994 62.4177 194.543 61.7962H195.762L195.76 61.7941Z" fill="white"/>
            <path d="M206.583 61.7941C205.895 62.9743 204.807 63.5958 203.453 63.5958C201.576 63.5958 200.028 61.9134 200.028 60.1117C200.028 58.0715 201.641 56.5732 203.463 56.5732C204.744 56.5732 205.944 57.1592 206.631 58.4293H205.44C204.927 57.835 204.333 57.4793 203.536 57.4793C202.117 57.4793 201.018 58.6783 201.018 60.0217C201.018 61.4384 202.09 62.6918 203.482 62.6918C204.186 62.6918 204.82 62.4177 205.369 61.7962H206.587L206.583 61.7941Z" fill="white"/>
            <path d="M211.188 63.4679V56.7007H212.178V63.4679H211.188Z" fill="white"/>
            <path d="M220.337 63.5957C218.46 63.5957 216.866 61.9865 216.866 60.1577C216.866 58.0819 218.46 56.5731 220.364 56.5731C222.379 56.5731 223.916 58.1551 223.916 60.0384C223.916 62.087 222.331 63.5957 220.335 63.5957H220.337ZM222.929 60.1033C222.929 58.7033 221.865 57.4792 220.437 57.4792C218.607 57.4792 217.856 59.0528 217.856 60.0572C217.856 61.4195 218.846 62.6917 220.393 62.6917C221.941 62.6917 222.931 61.3378 222.931 60.1033H222.929ZM219.741 56.3639L219.358 55.6775L221.4 54.5078L221.802 55.2486L219.741 56.3639Z" fill="white"/>
            <path d="M232.975 63.4679L229.624 58.2366H229.605V63.4679H228.615V56.7007H229.695L232.991 61.8483H233.01V56.7007H234V63.4679H232.975Z" fill="white"/>
            <path d="M50.3519 47.7154L50.2911 50.3373C49.0141 50.2724 47.7392 50.2473 46.4622 50.2473C45.1852 50.2473 43.9083 50.2724 42.6459 50.3373L42.5851 47.7154L43.9229 47.4601L43.2624 45.311H37.8483L37.1878 47.4601L38.5256 47.7154L38.4648 50.3373C37.1878 50.2724 35.9129 50.2473 34.6359 50.2473C33.3589 50.2473 32.084 50.2724 30.8196 50.3373L30.7588 47.7154L32.0966 47.4601L36.565 35.3589L35.2272 35.1036L35.3488 32.4817C38.0601 32.6093 40.7755 32.6093 43.4868 32.4817L49.0183 47.4601L50.3561 47.7154H50.3519ZM42.2391 41.986L40.7483 37.1376L40.5533 35.8067L40.3583 37.1376L38.8674 41.986H42.237H42.2391Z" fill="white"/>
            <path d="M70.4966 47.1797L70.3749 50.3394C69.706 50.6847 69.0371 50.7998 68.2235 50.7998C66.8627 50.7998 64.7218 50.4796 63.3253 48.0104L61.2829 44.4154C61.0648 44.0325 60.7608 43.8149 60.31 43.8149H59.5928V47.4601L60.9306 47.7154L60.8698 50.3373C59.6536 50.2724 58.4396 50.2473 57.2234 50.2473C56.0072 50.2473 54.7805 50.2724 53.5769 50.3373L53.5161 47.7154L54.8539 47.4601V35.3589L53.5161 35.1036L53.6377 32.4817H63.4238C66.6215 32.4817 69.9283 33.8628 69.9283 38.1483C69.9283 41.1511 68.3053 42.7267 66.2336 43.4026L67.3135 45.2985C68.2487 46.9495 68.687 47.1797 70.1338 47.1797H70.4986H70.4966ZM62.7298 40.2324C63.86 40.2324 64.8203 39.3892 64.8203 38.1483C64.8203 36.9074 63.8851 36.0641 62.7528 36.0641H59.5928V40.2345H62.7298V40.2324Z" fill="white"/>
            <path d="M89.014 50.984C89.706 50.984 90.4126 50.6889 90.6789 50.5236L90.8006 53.1456C90.3015 53.6185 89.2321 54.1814 87.5672 54.1814C84.8643 54.1814 83.5894 52.6517 82.9226 50.7684C82.7549 50.7747 82.5829 50.7789 82.4131 50.7789C77.0703 50.7789 73.2959 47.3137 73.2959 41.3897C73.2959 35.4657 77.0703 32.0005 82.4131 32.0005C87.7559 32.0005 91.5303 35.4657 91.5303 41.3897C91.5303 45.3613 89.8339 48.2281 87.1038 49.6866C87.5148 50.6094 88.2424 50.984 89.014 50.984ZM82.4131 46.688C85.1055 46.688 86.4265 44.1623 86.4265 41.3918C86.4265 38.6213 85.1055 36.0956 82.4131 36.0956C79.7207 36.0956 78.3997 38.6213 78.3997 41.3918C78.3997 44.1623 79.7207 46.688 82.4131 46.688Z" fill="white"/>
            <path d="M113.122 32.4712L113.243 35.0931L111.905 35.3484V42.4861C111.905 48.2678 108.903 50.7872 103.784 50.7872C98.6657 50.7872 95.663 48.2678 95.663 42.4861V35.3484L94.3252 35.0931L94.4468 32.4712C95.6378 32.5361 96.8289 32.5737 98.0325 32.5737C99.2361 32.5737 100.415 32.5361 101.618 32.4712L101.74 35.0931L100.402 35.3484V42.4861C100.402 44.7879 101.083 46.6942 103.782 46.6942C106.481 46.6942 107.162 44.7753 107.162 42.4861V35.3484L105.824 35.0931L105.946 32.4712C107.137 32.5361 108.328 32.5737 109.532 32.5737C110.735 32.5737 111.914 32.5361 113.117 32.4712H113.122Z" fill="white"/>
            <path d="M120.417 50.2495C119.188 50.2495 117.974 50.2746 116.77 50.3395L116.709 47.7176L118.047 47.4623V35.3611L116.709 35.1058L116.831 32.4839C118.022 32.5488 119.213 32.5864 120.417 32.5864C121.62 32.5864 122.799 32.5488 124.002 32.4839L124.124 35.1058L122.786 35.3611V47.4623L124.124 47.7176L124.063 50.3395C122.847 50.2746 121.633 50.2495 120.417 50.2495Z" fill="white"/>
            <path d="M133.912 36.0641V39.8118H140.767L140.656 42.8816L137.169 43.1369H133.912V47.4601L135.25 47.7154L135.189 50.3373C133.973 50.2724 132.759 50.2473 131.543 50.2473C130.327 50.2473 129.1 50.2724 127.896 50.3373L127.835 47.7154L129.173 47.4601V35.3589L127.835 35.1036L127.957 32.4817H142.375L142.497 33.7602L142.01 37.5142L139.525 37.7256L139.14 36.062H133.912V36.0641Z" fill="white"/>
            <path d="M154.216 32.011C159.559 32.011 163.333 35.4762 163.333 41.4002C163.333 47.3242 159.559 50.7894 154.216 50.7894C148.873 50.7894 145.099 47.3242 145.099 41.4002C145.099 35.4762 148.873 32.011 154.216 32.011ZM158.23 41.3981C158.23 38.6276 156.909 36.1019 154.216 36.1019C151.524 36.1019 150.203 38.6276 150.203 41.3981C150.203 44.1686 151.524 46.6943 154.216 46.6943C156.909 46.6943 158.23 44.1686 158.23 41.3981Z" fill="white"/>
            <path d="M183.113 47.1797L182.992 50.3394C182.323 50.6847 181.654 50.7998 180.84 50.7998C179.479 50.7998 177.338 50.4796 175.942 48.0104L173.9 44.4154C173.682 44.0325 173.377 43.8149 172.927 43.8149H172.21V47.4601L173.547 47.7154L173.487 50.3373C172.27 50.2724 171.056 50.2473 169.84 50.2473C168.624 50.2473 167.397 50.2724 166.194 50.3373L166.133 47.7154L167.471 47.4601V35.3589L166.133 35.1036L166.254 32.4817H176.041C179.238 32.4817 182.545 33.8628 182.545 38.1483C182.545 41.1511 180.922 42.7267 178.85 43.4026L179.93 45.2985C180.865 46.9495 181.304 47.1797 182.75 47.1797H183.115H183.113ZM175.346 40.2324C176.477 40.2324 177.437 39.3892 177.437 38.1483C177.437 36.9074 176.502 36.0641 175.37 36.0641H172.21V40.2345H175.346V40.2324Z" fill="white"/>
            <path d="M198.433 44.1852L198.628 42.8544L200.573 32.4817C201.813 32.5466 203.054 32.5842 204.306 32.5842C205.558 32.5842 206.787 32.5466 208.026 32.4817L209.255 47.4601L210.592 47.7154L210.532 50.3373C209.315 50.2724 208.101 50.2473 206.885 50.2473C205.669 50.2473 204.455 50.2724 203.239 50.3373L203.178 47.7154L204.516 47.4601L204.115 37.3552L200.966 50.3373C200.127 50.2724 199.288 50.2473 198.437 50.2473C197.585 50.2473 196.747 50.2724 195.908 50.3373L192.758 37.3552L192.358 47.4601L193.696 47.7154L193.635 50.3373C192.419 50.2724 191.205 50.2473 189.989 50.2473C188.772 50.2473 187.556 50.2724 186.342 50.3373L186.281 47.7154L187.619 47.4601L188.848 32.4817C190.087 32.5466 191.328 32.5842 192.568 32.5842C193.807 32.5842 195.059 32.5466 196.3 32.4817L198.246 42.8544L198.441 44.1852H198.433Z" fill="white"/>
            <path d="M233.469 47.7154L233.408 50.3373C232.131 50.2724 230.856 50.2473 229.579 50.2473C228.302 50.2473 227.028 50.2724 225.763 50.3373L225.702 47.7154L227.04 47.4601L226.38 45.311H220.966L220.305 47.4601L221.643 47.7154L221.582 50.3373C220.305 50.2724 219.03 50.2473 217.753 50.2473C216.476 50.2473 215.201 50.2724 213.937 50.3373L213.876 47.7154L215.214 47.4601L219.682 35.3589L218.344 35.1036L218.466 32.4817C221.177 32.6093 223.893 32.6093 226.604 32.4817L232.136 47.4601L233.473 47.7154H233.469ZM225.356 41.986L223.865 37.1376L223.67 35.8067L223.475 37.1376L221.985 41.986H225.354H225.356Z" fill="white"/>
            <path d="M43.4932 26.8884H52.4301L26.3912 0.595703L26.2444 0.740088V0.643831C17.4963 9.38017 8.74813 18.1165 0 26.8529V50.3018H0.00209687V50.3583H26.1941V49.8854H26.2423V23.0654L30.1362 26.8884H39.0164L39.1087 26.7964L26.2423 14.17V9.46806L43.4911 26.8863L43.4932 26.8884Z" fill="white"/>
        </g>
        <defs>
            <clipPath id="clip0_2003_122">
                <rect width="234" height="63" fill="white" transform="translate(0 0.595703)"/>
            </clipPath>
        </defs>
    </symbol>

    <symbol id="arrow-view" viewBox="0 0 88 67" fill="none">
        <path d="M27.85 39.5958L24.154 29.1658H25.932L28.956 38.0698H28.606L31.616 29.1658H33.394L29.698 39.5958H27.85ZM36.9057 39.7638C36.1497 39.7638 35.4777 39.5912 34.8897 39.2458C34.311 38.8912 33.8584 38.4152 33.5317 37.8178C33.205 37.2112 33.0417 36.5345 33.0417 35.7878C33.0417 35.0225 33.205 34.3458 33.5317 33.7578C33.8677 33.1698 34.3157 32.7078 34.8757 32.3718C35.4357 32.0265 36.0704 31.8538 36.7797 31.8538C37.349 31.8538 37.8577 31.9518 38.3057 32.1478C38.7537 32.3438 39.1317 32.6145 39.4397 32.9598C39.7477 33.2958 39.981 33.6832 40.1397 34.1218C40.3077 34.5605 40.3917 35.0272 40.3917 35.5218C40.3917 35.6432 40.387 35.7692 40.3777 35.8998C40.3684 36.0305 40.3497 36.1518 40.3217 36.2638H34.2877V35.0038H39.4257L38.6697 35.5778C38.763 35.1205 38.7304 34.7145 38.5717 34.3598C38.4224 33.9958 38.189 33.7112 37.8717 33.5058C37.5637 33.2912 37.1997 33.1838 36.7797 33.1838C36.3597 33.1838 35.9864 33.2912 35.6597 33.5058C35.333 33.7112 35.081 34.0098 34.9037 34.4018C34.7264 34.7845 34.6564 35.2512 34.6937 35.8018C34.647 36.3152 34.717 36.7632 34.9037 37.1458C35.0997 37.5285 35.3704 37.8272 35.7157 38.0418C36.0704 38.2565 36.4717 38.3638 36.9197 38.3638C37.377 38.3638 37.7644 38.2612 38.0817 38.0558C38.4084 37.8505 38.665 37.5845 38.8517 37.2578L40.1397 37.8878C39.9904 38.2425 39.757 38.5645 39.4397 38.8538C39.1317 39.1338 38.7584 39.3578 38.3197 39.5258C37.8904 39.6845 37.419 39.7638 36.9057 39.7638ZM41.5156 39.5958V32.0218H43.0276V33.5478L42.8876 33.3238C43.0556 32.8292 43.3263 32.4745 43.6996 32.2598C44.073 32.0358 44.521 31.9238 45.0436 31.9238H45.5056V33.3658H44.8476C44.325 33.3658 43.9003 33.5292 43.5736 33.8558C43.2563 34.1732 43.0976 34.6305 43.0976 35.2278V39.5958H41.5156Z" fill="white"/>
        <path d="M65 29.0958C65 28.5435 64.5523 28.0958 64 28.0958H55C54.4477 28.0958 54 28.5435 54 29.0958C54 29.6481 54.4477 30.0958 55 30.0958H63V38.0958C63 38.6481 63.4477 39.0958 64 39.0958C64.5523 39.0958 65 38.6481 65 38.0958V29.0958ZM55.7071 38.8029L64.7071 29.8029L63.2929 28.3887L54.2929 37.3887L55.7071 38.8029Z" fill="white"/>
    </symbol>

    <symbol id="btn-hamburger" viewBox="0 0 24 24" stroke="currentColor" fill="none" >
        <path stroke-linecap="round" stroke-linejoin="round" stroke-width="2" d="M4 6h16M4 12h16M4 18h16" />
    </symbol>
</svg>